<svg xmlns="http://www.w3.org/2000/svg" xmlns:xlink="http://www.w3.org/1999/xlink" version="1.1" id="Layer_1" x="0px" y="0px" width="100%" viewBox="0 0 1024 1024" enable-background="new 0 0 1024 1024" xml:space="preserve">
<path fill="#ffffff" opacity="1.000000" stroke="none" d=" M134.123978,624.211670   C117.303795,630.715820 100.845642,637.099670 84.353073,643.393311   C80.036324,645.040649 78.376038,643.750061 79.026062,639.057739   C82.244263,615.826782 85.482689,592.597595 88.915581,569.397644   C92.300850,546.519470 96.355858,523.750671 100.759262,501.046753   C102.375282,492.714569 104.232803,484.429474 105.906082,476.108002   C106.527687,473.016663 108.637558,471.662781 111.401596,471.037781   C152.016052,461.853516 192.068893,450.540344 232.079941,439.086578   C275.784912,426.575348 319.045441,412.651794 362.130829,398.147400   C402.862457,384.435425 443.242523,369.751038 483.501251,354.746399   C525.620178,339.048401 567.526855,322.791595 609.069946,305.587097   C652.150146,287.745972 695.160156,269.754791 737.760681,250.797195   C770.928955,236.037018 803.666260,220.337158 836.663025,205.206802   C868.907959,190.421173 901.506104,176.405304 933.965088,162.087616   C935.556396,161.385712 937.241028,160.320572 939.082275,161.476593   C939.812744,164.237305 937.573181,165.087585 936.182800,166.297348   C900.960022,196.945343 863.760071,225.045761 825.849304,252.256851   C792.274475,276.355713 757.997192,299.404572 722.965515,321.301331   C686.103943,344.341858 648.760925,366.597717 610.871155,387.925537   C588.955444,400.261688 567.329407,413.121582 545.266113,425.184418   C502.016388,448.830658 458.568390,472.107391 414.685516,494.576385   C362.193207,521.453613 309.048737,546.966248 255.565811,571.788696   C215.674377,590.303040 175.227798,607.539124 134.123978,624.211670  z"/>
<path fill="#ffffff" opacity="1.000000" stroke="none" d=" M297.311829,767.746338   C272.735840,756.897705 248.779343,745.625061 225.117249,733.732239   C223.002853,732.669556 219.937088,732.083618 220.026764,728.924988   C220.103912,726.207703 222.773972,725.321411 224.718735,724.175903   C268.793121,698.216370 312.267914,671.292419 355.000763,643.177734   C398.422760,614.609802 441.376984,585.341064 483.708099,555.190918   C534.723816,518.855286 584.968262,481.449280 634.135986,442.642761   C684.734375,402.707184 735.110779,362.496918 784.621033,321.195770   C835.930603,278.393677 885.426941,233.542389 935.595337,189.449081   C940.217102,185.386978 944.387024,180.811676 948.785645,176.493958   C949.943970,175.357025 951.152832,173.539520 952.941162,174.588577   C955.184265,175.904465 953.617493,177.859604 952.966919,179.442032   C942.056702,205.979935 926.372864,229.701141 909.824585,252.950775   C879.272278,295.875305 846.104980,336.749878 812.305359,377.103333   C788.245178,405.828888 762.890503,433.441040 737.779053,461.257874   C699.484680,503.677795 660.094849,545.062683 620.295471,586.054749   C597.786011,609.238708 574.700012,631.866760 551.706482,654.575867   C532.153442,673.887024 512.583191,693.190552 492.622314,712.076538   C462.494995,740.581360 432.239716,768.958191 400.851929,796.093018   C386.730133,808.301331 392.821869,806.911072 374.645782,800.032776   C348.626526,790.186462 323.125885,779.080994 297.311829,767.746338  z"/>
<path fill="#ffffff" opacity="1.000000" stroke="none" d=" M938.501099,273.390869   C928.931030,304.484711 919.335876,335.142944 908.632324,365.454681   C891.717407,413.356537 873.282288,460.647064 853.225037,507.321625   C825.465210,571.920532 795.531189,635.484314 762.796692,697.707825   C746.511292,728.664062 728.730957,758.792969 710.969482,788.924072   C701.097168,805.671814 706.203247,802.784485 685.880127,803.055176   C637.904907,803.694214 589.925964,804.054260 541.948547,804.532288   C540.294678,804.548828 538.375244,804.949524 537.522095,803.103394   C536.648193,801.212524 538.383423,800.062134 539.399475,798.836487   C555.130737,779.859497 571.220093,761.168396 586.570557,741.888855   C620.079285,699.803040 653.805359,657.888000 686.035034,614.791870   C737.526428,545.939758 786.858154,475.576416 834.533386,404.042236   C861.692688,363.291046 888.541870,322.328430 914.210449,280.624725   C925.803650,261.789124 937.390015,242.857330 946.276978,222.486404   C946.953491,220.935745 947.744202,218.955643 949.680359,219.451248   C952.205994,220.097733 951.207397,222.412704 950.875549,224.091263   C947.611450,240.601227 942.925598,256.757385 938.501099,273.390869  z"/>
<path fill="#ffffff" opacity="1.000000" stroke="none" d=" M469.217529,246.966415   C490.051727,245.029129 510.342682,242.412628 530.594360,239.471558   C550.843323,236.530884 571.121643,233.780502 591.338806,230.636307   C611.885376,227.440887 632.358093,223.773453 652.889648,220.477890   C693.160156,214.013962 733.082825,205.787659 772.981995,197.381943   C790.081299,193.779556 807.239075,190.463516 824.231018,186.362839   C825.824524,185.978271 827.431091,185.293808 829.033630,186.528900   C829.762573,189.019806 827.963501,189.642410 826.236694,190.345612   C796.164062,202.591965 766.248901,215.243134 735.989075,227.007904   C678.070129,249.526367 619.186646,269.284729 559.782349,287.524689   C524.601990,298.326752 489.270660,308.585541 453.673431,317.901306   C406.954346,330.127625 359.982849,341.295990 312.603699,350.707428   C281.912415,356.803986 251.156067,362.486237 220.274536,367.580261   C199.421158,371.020111 178.532120,374.266296 157.699295,377.841766   C155.644699,378.194336 153.039963,379.404327 151.555405,377.499451   C149.809219,375.258881 152.100601,373.173767 153.108353,371.169189   C169.717987,338.130066 186.962540,305.428894 204.699127,272.977600   C208.261581,266.459595 212.132462,263.624908 219.795914,263.707733   C240.441330,263.930817 261.142639,263.933502 281.737671,262.661926   C309.973846,260.918579 338.257324,259.794525 366.436798,257.087433   C390.286530,254.796310 414.177185,252.932907 438.031097,250.682846   C448.299164,249.714294 458.520172,248.247238 469.217529,246.966415  z"/>
</svg>