<?xml version="1.0" encoding="UTF-8"?>
<svg version="1.1" xmlns="http://www.w3.org/2000/svg" width="512" height="512">
<path d="M0 0 C0.9215538 0.00222061 1.8431076 0.00444122 2.79258728 0.00672913 C3.83359085 0.00680466 4.87459442 0.00688019 5.94714355 0.00695801 C7.07941879 0.01211929 8.21169403 0.01728058 9.37828064 0.02259827 C10.53106003 0.02401321 11.68383942 0.02542816 12.87155151 0.02688599 C16.57043503 0.03250446 20.26925903 0.0450601 23.96812439 0.05775452 C26.46877456 0.06276714 28.96942567 0.06733045 31.47007751 0.07142639 C37.61528027 0.0824799 43.76044808 0.099236 49.90562439 0.12025452 C52.70766113 6.87718671 55.1568902 13.67742338 57.35874939 20.65150452 C57.81637665 22.08810425 57.81637665 22.08810425 58.2832489 23.5537262 C58.9202414 25.55645059 59.55541609 27.55975402 60.18882751 29.56361389 C61.16231481 32.64140707 62.14294704 35.71686014 63.12437439 38.79212952 C63.74458803 40.74512056 64.36439464 42.69824092 64.98374939 44.65150452 C65.27743408 45.57225769 65.57111877 46.49301086 65.873703 47.44166565 C66.14108276 48.29015076 66.40846252 49.13863586 66.6839447 50.01283264 C67.03891022 51.13341064 67.03891022 51.13341064 67.40104675 52.27662659 C67.90562439 54.12025452 67.90562439 54.12025452 67.90562439 56.12025452 C68.44187439 56.2066217 68.97812439 56.29298889 69.53062439 56.38197327 C88.49934681 59.78261594 108.4256483 66.98362573 124.7620697 77.29164124 C128.2434772 79.56363752 128.2434772 79.56363752 132.26060486 79.88783264 C135.21309231 79.03102809 137.80025332 77.88304617 140.56187439 76.53041077 C141.65749695 75.99754456 142.75311951 75.46467834 143.88194275 74.91566467 C145.04475769 74.34380432 146.20757263 73.77194397 147.40562439 73.18275452 C148.61170672 72.59652439 149.81817228 72.01108207 151.02500916 71.42640686 C156.76698108 68.64196777 162.49495925 65.82999739 168.21421814 62.99916077 C170.09048723 62.08112458 171.96678738 61.16315188 173.84312439 60.24525452 C174.7055072 59.81092102 175.56789001 59.37658752 176.45640564 58.92909241 C177.25304626 58.54100403 178.04968689 58.15291565 178.87046814 57.75306702 C179.55745789 57.41162659 180.24444763 57.07018616 180.95225525 56.71839905 C183.41677123 55.96373536 184.48473977 56.26398389 186.90562439 57.12025452 C188.71537781 58.56924438 188.71537781 58.56924438 190.57261658 60.44667053 C191.62325287 61.49764671 191.62325287 61.49764671 192.69511414 62.56985474 C193.44005127 63.33027573 194.1849884 64.09069672 194.95249939 64.87416077 C195.72370117 65.64960739 196.49490295 66.42505402 197.28947449 67.22399902 C199.75198149 69.70330393 202.20385573 72.19283443 204.65562439 74.68275452 C206.32290348 76.36507891 207.99086408 78.04672819 209.65953064 79.72767639 C213.74950341 83.85073326 217.8307936 87.9822351 221.90562439 92.12025452 C217.66700449 101.84700888 213.37537159 111.48712676 208.28062439 120.79994202 C207.18623645 122.85146532 206.09585157 124.90507401 205.00621033 126.9591217 C204.26145447 128.33695308 203.49844778 129.7050488 202.71910095 131.06361389 C197.75445884 139.50749471 197.75445884 139.50749471 197.89610291 148.97425842 C199.53562671 152.60617629 201.67295885 155.82735199 203.90562439 159.12025452 C204.64815711 160.49501941 205.37153733 161.88069809 206.05796814 163.28431702 C206.94162048 164.99748108 206.94162048 164.99748108 207.84312439 166.74525452 C215.18101335 181.33591872 220.74822638 196.0839962 223.90562439 212.12025452 C224.5759671 212.2982962 225.24630981 212.47633789 225.93696594 212.65977478 C232.53480536 214.43266434 239.06084789 216.36638706 245.56968689 218.44056702 C247.00772171 218.89675919 247.00772171 218.89675919 248.47480774 219.36216736 C250.47668549 219.99800168 252.47819862 220.63498507 254.47935486 221.27308655 C257.55639381 222.25346494 260.63523074 223.2280463 263.71421814 224.20228577 C265.66615135 224.8230328 267.61797828 225.44411417 269.56968689 226.06556702 C270.49246429 226.35722748 271.4152417 226.64888794 272.36598206 226.9493866 C273.211315 227.21991852 274.05664795 227.49045044 274.92759705 227.7691803 C276.04698166 228.1253392 276.04698166 228.1253392 277.1889801 228.48869324 C278.90562439 229.12025452 278.90562439 229.12025452 279.90562439 230.12025452 C279.99902873 231.74700229 280.0230761 233.37779503 280.01914978 235.00721741 C280.01907425 236.04822098 280.01899872 237.08922455 280.0189209 238.16177368 C280.01375961 239.29404892 280.00859833 240.42632416 280.00328064 241.59291077 C280.00186569 242.74569016 280.00045074 243.89846954 279.99899292 245.08618164 C279.99337444 248.78506515 279.98081881 252.48388916 279.96812439 256.18275452 C279.96311177 258.68340469 279.95854845 261.1840558 279.95445251 263.68470764 C279.94339901 269.8299104 279.92664291 275.97507821 279.90562439 282.12025452 C273.1486922 284.92229125 266.34845552 287.37152032 259.37437439 289.57337952 C257.93777466 290.03100677 257.93777466 290.03100677 256.47215271 290.49787903 C254.46942832 291.13487153 252.46612489 291.77004621 250.46226501 292.40345764 C247.38447183 293.37694494 244.30901877 294.35757716 241.23374939 295.33900452 C239.28075835 295.95921816 237.32763798 296.57902477 235.37437439 297.19837952 C234.45362122 297.49206421 233.53286804 297.7857489 232.58421326 298.08833313 C231.3114856 298.48940277 231.3114856 298.48940277 230.01304626 298.89857483 C228.89246826 299.25354034 228.89246826 299.25354034 227.74925232 299.61567688 C225.90562439 300.12025452 225.90562439 300.12025452 223.90562439 300.12025452 C223.87984314 300.72611389 223.85406189 301.33197327 223.82749939 301.95619202 C223.37530733 308.63630199 221.683175 314.04839969 218.90562439 320.12025452 C203.135298 312.90570176 180.09403338 291.39526099 173.78782654 275.26026917 C171.11805678 264.82911333 172.39813695 254.11458792 174.065979 243.61485291 C175.1273471 236.79580585 174.48997256 230.84323414 172.90562439 224.12025452 C172.73063416 223.28776184 172.55564392 222.45526917 172.37535095 221.59754944 C171.8757701 219.31684389 171.31604014 217.06454001 170.71812439 214.80775452 C170.50671814 214.0079718 170.29531189 213.20818909 170.07749939 212.38417053 C167.82183484 204.2436383 164.55000698 196.72187853 160.90562439 189.12025452 C160.48410095 188.19857483 160.06257751 187.27689514 159.62828064 186.32728577 C143.58077722 152.341159 112.2268525 126.37624737 77.46031189 113.19300842 C36.98977533 98.77293983 -5.95104818 101.61200668 -44.62269592 119.88783264 C-51.11282781 123.12392369 -57.15095335 126.97901015 -63.09437561 131.12025452 C-64.17589905 131.86533264 -65.25742249 132.61041077 -66.37171936 133.37806702 C-81.98482941 144.76463677 -94.72394547 158.88112286 -105.09437561 175.12025452 C-105.75695374 176.13216858 -106.41953186 177.14408264 -107.10218811 178.18666077 C-128.26177995 212.29820008 -132.90853478 254.46641966 -124.09437561 293.12025452 C-122.74293622 298.5757722 -121.02729272 303.83995326 -119.09437561 309.12025452 C-118.87023987 309.74690002 -118.64610413 310.37354553 -118.41517639 311.0191803 C-106.81738785 343.16068743 -83.40984104 369.86975306 -54.09437561 387.12025452 C-53.50962463 387.4668512 -52.92487366 387.81344788 -52.32240295 388.17054749 C-38.767802 396.09197088 -24.32447964 401.29901177 -9.09437561 404.99525452 C-8.25890198 405.19852356 -7.42342834 405.4017926 -6.56263733 405.61122131 C4.09787914 408.04595252 14.69541223 408.28124036 25.59312439 408.24525452 C27.32079041 408.2510553 27.32079041 408.2510553 29.08335876 408.25697327 C30.24544861 408.2556842 31.40753845 408.25439514 32.60484314 408.25306702 C33.79770935 408.26732727 34.99057556 408.28158752 36.21958923 408.29627991 C39.94732602 408.23858369 39.94732602 408.23858369 43.6268158 407.192276 C49.29402018 405.99139059 53.31125734 405.45507647 58.35542297 408.69264221 C65.14271555 414.15336101 70.98742196 420.56609003 76.90562439 426.93275452 C78.75067892 428.85646851 80.60989833 430.76583396 82.46812439 432.67689514 C85.83128612 436.16490907 89.18421858 439.66074356 92.48765564 443.20545959 C93.14999207 443.91463028 93.81232849 444.62380096 94.49473572 445.35446167 C95.90562439 447.12025452 95.90562439 447.12025452 95.90562439 449.12025452 C92.1368742 450.29372553 88.36530355 451.45785784 84.59312439 452.62025452 C82.98534119 453.1210553 82.98534119 453.1210553 81.34507751 453.63197327 C80.31705017 453.94779358 79.28902283 454.26361389 78.22984314 454.58900452 C76.80804749 455.02889709 76.80804749 455.02889709 75.35752869 455.47767639 C72.90562439 456.12025452 72.90562439 456.12025452 69.90562439 456.12025452 C69.65562683 457.38031311 69.40562927 458.6403717 69.14805603 459.93861389 C67.91139007 465.4868661 66.01830307 470.71068662 64.02671814 476.02650452 C63.65458694 477.03241638 63.28245575 478.03832825 62.89904785 479.07472229 C62.11762995 481.18337502 61.3334027 483.29098861 60.54649353 485.39759827 C59.33723211 488.6360342 58.13735819 491.87783378 56.93882751 495.12025452 C56.17700134 497.17253973 55.41465046 499.22463026 54.65171814 501.27650452 C54.11108986 502.73570312 54.11108986 502.73570312 53.55953979 504.22438049 C53.22571793 505.11621033 52.89189606 506.00804016 52.54795837 506.92689514 C52.10733315 508.10862305 52.10733315 508.10862305 51.6578064 509.31422424 C50.90562439 511.12025452 50.90562439 511.12025452 49.90562439 512.12025452 C48.27887661 512.21365885 46.64808388 512.23770623 45.0186615 512.23377991 C43.97765793 512.23370438 42.93665436 512.23362885 41.86410522 512.23355103 C40.73182999 512.22838974 39.59955475 512.22322845 38.43296814 512.21791077 C37.28018875 512.21649582 36.12740936 512.21508087 34.93969727 512.21362305 C31.24081375 512.20800457 27.54198975 512.19544893 23.84312439 512.18275452 C21.34247422 512.1777419 18.8418231 512.17317858 16.34117126 512.16908264 C10.19596851 512.15802914 4.0508007 512.14127304 -2.09437561 512.12025452 C-4.82936761 506.11181513 -7.34687804 500.05468548 -9.69593811 493.88587952 C-10.01847565 493.04482666 -10.34101318 492.2037738 -10.67332458 491.3372345 C-11.69091939 488.6824275 -12.70525815 486.02639152 -13.71937561 483.37025452 C-14.74134714 480.70011286 -15.76398671 478.03022803 -16.78684998 475.36042786 C-17.41970443 473.70789396 -18.05191871 472.05511471 -18.68339539 470.40205383 C-19.24308239 468.93803366 -19.80616507 467.47530471 -20.37347412 466.01422119 C-20.98466687 464.40848349 -21.54775133 462.78456276 -22.09999084 461.15760803 C-22.99928704 458.73702171 -22.99928704 458.73702171 -26.34046936 457.81947327 C-27.73375336 457.46665944 -29.13133986 457.13058192 -30.53187561 456.80775452 C-49.51056714 451.78540872 -68.76507683 443.0064537 -85.09437561 432.12025452 C-89.72625713 432.43434117 -93.69100354 434.68980596 -97.78187561 436.72572327 C-98.52083069 437.08741104 -99.25978577 437.44909882 -100.02113342 437.82174683 C-102.38160335 438.97829945 -104.73811318 440.14265733 -107.09437561 441.30775452 C-112.39252666 443.91482509 -117.69457758 446.51375254 -123.0035553 449.09870911 C-124.36548881 449.76413067 -125.72561839 450.43326122 -127.08363342 451.10664368 C-128.87350392 451.99321343 -130.67122737 452.86387766 -132.46937561 453.73353577 C-133.46710999 454.22249329 -134.46484436 454.71145081 -135.49281311 455.21522522 C-138.42150842 456.23405719 -139.24820687 456.16075694 -142.09437561 455.12025452 C-143.87289429 453.74287415 -143.87289429 453.74287415 -145.68544006 451.96498108 C-146.3690712 451.3004895 -147.05270233 450.63599792 -147.75704956 449.95137024 C-148.48324997 449.2285083 -149.20945038 448.50564636 -149.95765686 447.76087952 C-150.70903427 447.0194873 -151.46041168 446.27809509 -152.23455811 445.51423645 C-153.81946985 443.94450824 -155.40033499 442.37068528 -156.97743225 440.79310608 C-159.39953477 438.37757544 -161.84459172 435.9870385 -164.29164124 433.59681702 C-165.82761311 432.06964489 -167.36216788 430.54104588 -168.89515686 429.01087952 C-169.63147842 428.2961145 -170.36779999 427.58134949 -171.12643433 426.84492493 C-171.79430466 426.16782471 -172.46217499 425.49072449 -173.15028381 424.79310608 C-173.74444595 424.20321899 -174.33860809 423.61333191 -174.95077515 423.00556946 C-176.09437561 421.12025452 -176.09437561 421.12025452 -175.85687256 418.57371521 C-174.91395809 415.53973115 -173.65072926 412.80935526 -172.25062561 409.95619202 C-171.96522415 409.37044403 -171.67982269 408.78469604 -171.38577271 408.18119812 C-170.77549528 406.93018356 -170.16267696 405.68040583 -169.54753113 404.43177795 C-168.58787678 402.48205085 -167.63672057 400.52839031 -166.68788147 398.57337952 C-163.86178996 392.75523452 -161.01260082 386.94947217 -158.12953186 381.15931702 C-157.30521508 379.47967762 -156.48098829 377.79999406 -155.65687561 376.12025452 C-155.27402405 375.36921448 -154.89117249 374.61817444 -154.49671936 373.84437561 C-152.48053839 369.7090884 -151.83226006 367.51732873 -153.09437561 363.12025452 C-153.9131273 361.27909352 -154.79445392 359.46512301 -155.71937561 357.67494202 C-161.74505716 345.74994132 -167.16018175 334.07851889 -171.34437561 321.37025452 C-171.71433655 320.24731995 -172.08429749 319.12438538 -172.46546936 317.96742249 C-174.14407882 312.68800279 -175.55819378 307.6397734 -176.09437561 302.12025452 C-177.3544342 301.87025696 -178.6144928 301.6202594 -179.91273499 301.36268616 C-185.4609872 300.1260202 -190.68480771 298.2329332 -196.00062561 296.24134827 C-197.00653748 295.86921707 -198.01244934 295.49708588 -199.04884338 295.11367798 C-201.15749611 294.33226008 -203.26510971 293.54803283 -205.37171936 292.76112366 C-208.61015529 291.55186224 -211.85195487 290.35198832 -215.09437561 289.15345764 C-217.14666082 288.39163147 -219.19875135 287.62928059 -221.25062561 286.86634827 C-222.70982422 286.32571999 -222.70982422 286.32571999 -224.19850159 285.77416992 C-225.09033142 285.44034805 -225.98216125 285.10652618 -226.90101624 284.7625885 C-228.08274414 284.32196327 -228.08274414 284.32196327 -229.28834534 283.87243652 C-231.09437561 283.12025452 -231.09437561 283.12025452 -232.09437561 282.12025452 C-232.18777995 280.49350674 -232.21182732 278.862714 -232.207901 277.23329163 C-232.20782547 276.19228806 -232.20774994 275.15128448 -232.20767212 274.07873535 C-232.20251083 272.94646011 -232.19734955 271.81418488 -232.19203186 270.64759827 C-232.19061691 269.49481888 -232.18920197 268.34203949 -232.18774414 267.15432739 C-232.18212566 263.45544388 -232.16957003 259.75661988 -232.15687561 256.05775452 C-232.15186299 253.55710435 -232.14729967 251.05645323 -232.14320374 248.55580139 C-232.13215023 242.41059864 -232.11539413 236.26543083 -232.09437561 230.12025452 C-222.13778306 225.83101328 -212.01682509 222.05548612 -201.83680725 218.33436584 C-199.0046022 217.29777239 -196.17544956 216.25312253 -193.34632874 215.20814514 C-191.54247139 214.54684907 -189.73844123 213.88602417 -187.93421936 213.22572327 C-187.09052292 212.91330185 -186.24682648 212.60088043 -185.37756348 212.2789917 C-184.59567154 211.99481888 -183.8137796 211.71064606 -183.00819397 211.41786194 C-182.32268967 211.16646957 -181.63718536 210.91507721 -180.9309082 210.65606689 C-179.09437561 210.12025452 -179.09437561 210.12025452 -176.09437561 210.12025452 C-175.98988098 209.45670959 -175.88538635 208.79316467 -175.77772522 208.10951233 C-174.60703346 201.1475872 -172.89550118 194.56147553 -170.65687561 187.87025452 C-170.31632141 186.84826965 -169.97576721 185.82628479 -169.62489319 184.77333069 C-165.44487759 172.66713782 -160.33773198 159.99071698 -153.20765686 149.28822327 C-151.70362056 146.35931047 -152.20910286 145.28858477 -153.09437561 142.12025452 C-154.24468223 139.51618943 -155.43294935 136.97839102 -156.69984436 134.43275452 C-157.06153214 133.69379944 -157.42321991 132.95484436 -157.79586792 132.1934967 C-158.95242054 129.83302677 -160.11677842 127.47651694 -161.28187561 125.12025452 C-163.88894618 119.82210347 -166.48787364 114.52005255 -169.0728302 109.21107483 C-169.73825177 107.84914132 -170.40738232 106.48901173 -171.08076477 105.1309967 C-171.96733452 103.3411262 -172.83799875 101.54340276 -173.70765686 99.74525452 C-174.19661438 98.74752014 -174.6855719 97.74978577 -175.18934631 96.72181702 C-176.17521343 93.88788123 -176.31882878 92.82576772 -175.09437561 90.12025452 C-173.81019592 88.57142639 -173.81019592 88.57142639 -172.17250061 87.08900452 C-171.56535217 86.53148499 -170.95820374 85.97396545 -170.33265686 85.39955139 C-169.67652405 84.81238342 -169.02039124 84.22521545 -168.34437561 83.62025452 C-167.67277405 83.0073053 -167.00117249 82.39435608 -166.30921936 81.76283264 C-164.92081231 80.49600926 -163.52950616 79.23235627 -162.13539124 77.97181702 C-160.22909967 76.24247309 -158.33796488 74.49859172 -156.45375061 72.74525452 C-155.88624084 72.21738342 -155.31873108 71.68951233 -154.73402405 71.14564514 C-154.19294006 70.64226624 -153.65185608 70.13888733 -153.09437561 69.62025452 C-148.85283872 65.67527152 -144.51318512 61.86578388 -140.09437561 58.12025452 C-137.44495451 59.27917505 -134.80034627 60.44787218 -132.15687561 61.62025452 C-131.29384827 61.99738586 -130.43082092 62.37451721 -129.54164124 62.76307678 C-124.25693738 65.11339358 -119.09272989 67.61313353 -113.99462891 70.34092712 C-111.09975042 71.88692655 -108.1868809 73.39747874 -105.27354431 74.90834045 C-103.82827442 75.6706557 -102.39187722 76.45005084 -100.96525574 77.24671936 C-92.82588645 82.04197507 -92.82588645 82.04197507 -83.74281311 82.38978577 C-80.6378561 80.85695889 -77.91843817 79.11865091 -75.09437561 77.12025452 C-73.56497104 76.26716091 -72.02396356 75.4343569 -70.46937561 74.62806702 C-69.39526428 74.04134216 -69.39526428 74.04134216 -68.29945374 73.44276428 C-36.40202087 56.12025452 -36.40202087 56.12025452 -22.09437561 56.12025452 C-21.84437805 54.86019592 -21.59438049 53.60013733 -21.33680725 52.30189514 C-20.10014129 46.75364293 -18.20705429 41.52982241 -16.21546936 36.21400452 C-15.65727257 34.70513672 -15.65727257 34.70513672 -15.08779907 33.16578674 C-14.30638117 31.05713401 -13.52215392 28.94952042 -12.73524475 26.84291077 C-11.52598333 23.60447483 -10.32610941 20.36267526 -9.12757874 17.12025452 C-8.36575256 15.06796931 -7.60340168 13.01587878 -6.84046936 10.96400452 C-6.29984108 9.50480591 -6.29984108 9.50480591 -5.74829102 8.01612854 C-5.41446915 7.12429871 -5.08064728 6.23246887 -4.73670959 5.31361389 C-4.44295944 4.52579529 -4.14920929 3.73797668 -3.84655762 2.92628479 C-2.69218784 0.1545796 -2.69218784 0.1545796 0 0 Z " fill="#000000" transform="translate(232.09437561035156,-0.1202545166015625)"/>
<path d="M0 0 C30.07664573 -0.87233651 56.21058441 11.29050063 77.97265625 31.47265625 C98.39518014 53.18123329 107.02817491 80.86034502 106.6171875 110.16015625 C106.22316857 120.59091185 104.17870553 131.36312573 99.99609375 140.98046875 C99.06812547 143.59565209 99.3328929 144.57136665 100.22265625 147.16015625 C102.08305288 149.29393039 103.94940153 151.2610727 105.96588135 153.23722839 C106.57165725 153.8427453 107.17743314 154.44826221 107.80156589 155.07212812 C109.83887382 157.10500132 111.8866999 159.12694163 113.93457031 161.14916992 C115.39523787 162.60244477 116.8552181 164.05641073 118.31455994 165.51101685 C121.46209283 168.64566203 124.61417722 171.77563289 127.7697525 174.90218163 C132.76174329 179.84888195 137.74178247 184.8074962 142.71990967 189.7681427 C155.09073518 202.09186112 167.47654355 214.40049261 179.86688232 226.70458984 C189.48784608 236.25882696 199.10430263 245.81750401 208.70697379 255.39013082 C213.65204378 260.31871715 218.60634088 265.23777533 223.5678401 270.14981973 C226.65877972 273.2140418 229.74130284 276.28662506 232.82159615 279.36154556 C234.24791378 280.78198894 235.67766699 282.19899247 237.11115074 283.6122036 C251.05658685 297.36730432 251.05658685 297.36730432 254.22265625 305.16015625 C254.53286335 305.91496875 254.84307045 306.66978125 255.16267776 307.44746685 C259.27891414 318.05691291 258.69517611 328.42460034 255.22265625 339.16015625 C250.021244 350.26093384 240.38056443 356.89820116 229.22265625 361.16015625 C221.03405702 363.88968933 210.67362904 362.95924366 202.85659409 359.4930954 C192.51107416 354.25760793 184.55443388 344.72268791 176.51074219 336.58007812 C175.04019517 335.09913097 173.56915302 333.61867534 172.09765625 332.13867188 C168.9439185 328.96513843 165.79314569 325.78870106 162.64452362 322.61009216 C157.66775258 317.58703663 152.68108939 312.57388114 147.69244385 307.56262207 C133.51317124 293.31659929 119.34246155 279.0621338 105.19238281 264.78710938 C97.36666414 256.89245603 89.53036362 249.00847097 81.68200898 241.13631868 C76.71630255 236.15438511 71.76404564 231.15956806 66.82112837 226.15502834 C63.75154106 223.05352743 60.66954263 219.9646024 57.58377075 216.87921143 C56.1518396 215.44241985 54.72509266 214.00044082 53.30387115 212.55305481 C51.36873693 210.58378091 49.41615513 208.63366802 47.45794678 206.68737793 C46.61353834 205.81470756 46.61353834 205.81470756 45.75207114 204.92440748 C44.01689534 203.15611492 44.01689534 203.15611492 41.22265625 201.16015625 C38.56318922 201.1121418 38.56318922 201.1121418 36.22265625 202.16015625 C34.97613281 202.46953125 33.72960937 202.77890625 32.4453125 203.09765625 C30.3604798 203.62826894 28.27659311 204.162363 26.19335938 204.69921875 C0.71619278 211.17114353 -25.97424027 207.32885428 -48.53515625 193.98828125 C-73.79094316 178.45922579 -90.35938534 155.84679229 -97.77734375 127.16015625 C-101.22515438 111.96824065 -100.78342546 96.19215092 -96.77734375 81.16015625 C-96.11734375 80.17015625 -95.45734375 79.18015625 -94.77734375 78.16015625 C-88.26190856 84.11939576 -81.78684114 90.07847519 -75.59375 96.375 C-73.75781949 98.17934461 -71.85679181 99.86047014 -69.90234375 101.53515625 C-66.71051866 104.27637074 -63.73431398 107.16701513 -60.77734375 110.16015625 C-57.20644754 113.76927306 -53.5722184 117.21306418 -49.70703125 120.50390625 C-48.37743989 121.64509398 -47.07111379 122.81376516 -45.78515625 124.00390625 C-35.34366088 133.5922055 -23.59015924 136.78465683 -9.48828125 136.44140625 C5.93115316 135.27277543 16.91867344 128.15168576 26.93066406 116.77880859 C35.63783016 105.8701708 37.43370294 92.6272432 36.22265625 79.16015625 C33.50759106 64.13787939 24.44400004 53.78364178 13.8203125 43.4375 C12.73069739 42.36045945 11.64212855 41.2823595 10.55455017 40.20326233 C7.720698 37.3957363 4.87584776 34.59966012 2.02746582 31.80688477 C-2.55746331 27.30900922 -7.12820818 22.79681135 -11.69299507 18.27850533 C-13.28599269 16.70595485 -14.88562192 15.14038812 -16.48606873 13.57542419 C-17.45439625 12.62074053 -18.42251224 11.66584226 -19.39038086 10.71069336 C-20.23974716 9.8778331 -21.08911346 9.04497284 -21.96421814 8.18687439 C-23.77734375 6.16015625 -23.77734375 6.16015625 -23.77734375 4.16015625 C-15.79153623 2.01169027 -8.24258047 0.47531055 0 0 Z " fill="#000000" transform="translate(253.77734375,148.83984375)"/>
</svg>
